<svg id="Layer_1" enable-background="new 0 0 512 512" viewBox="0 0 512 512" xmlns="http://www.w3.org/2000/svg"><g id="_x35_0_healthcare_00000065787322428423982240000007166500812561691801_"><g><path d="m512 240.94v120.47h-30.12v60.24h-30.12v90.35h-30.11l-45.18-15.42-45.18 15.42h-30.11v-180.71h30.11v-30.11h60.24v30.11h30.12v-90.35h30.11v-30.12h30.12v30.12z"/><path d="m301.18 301.18h-30.12v30.11h-30.12v-30.11h-30.12v-30.12h-30.11v-30.12h-30.12v-30.12h-30.12v-30.11h-30.12v-30.12h-30.11v-90.35h30.11v-30.12h30.12v-30.12h90.35v30.12h30.12v30.12h30.12v-30.12h30.12v-30.12h90.35v30.12h30.12v30.12h30.11v90.35h-30.11v30.12h-30.12v30.11h-30.12v30.12h-30.12v30.12h-30.11z"/><path d="m180.71 331.29h30.11v180.71h-30.11l-45.18-15.06-45.18 15.06h-30.11v-90.35h-30.12v-60.24h-30.12v-120.47h30.12v-30.12h30.12v30.12h30.11v90.35h30.12v-30.11h60.24z"/></g><g><g><path d="m421.65 90.35v60.24h-30.12v30.12h-30.12v30.11h-30.12l-30.11 30.12-45.18 15.06-45.18-15.06-30.11-30.12h-30.12v-30.11h-30.12v-30.12h-30.12v-60.24l30.12-30.11 45.18-15.06 45.17 15.06 30.12 30.11h30.12l30.12-30.11 45.17-15.06 45.18 15.06z" fill="#ff3939"/></g><g fill="#3d99e1"><path d="m331.29 481.88h90.36v30.12h-90.36z"/><path d="m90.35 481.88h90.36v30.12h-90.36z"/></g><g fill="#f1ba87"><path d="m481.88 240.94v120.47h-30.12v60.24h-30.11v30.11h-90.36v-120.47h60.24v30.12h-30.12v30.12h30.12v-30.12h30.12v-30.12h30.11v-90.35z"/><path d="m180.71 331.29v120.47h-90.36v-30.11h-30.11v-60.24h-30.12v-120.47h30.12v90.35h30.11v30.12h30.12v30.12h30.12v-30.12h-30.12v-30.12z"/></g></g><g><g fill="#c00000"><path d="m301.18 240.94v30.12h-30.12v30.12h-30.12v-30.12h-30.12v-30.12z"/><path d="m180.71 210.82h30.11v30.12h-30.11z"/><path d="m301.18 210.82h30.11v30.12h-30.11z"/></g><g fill="#ff8d8d"><path d="m120.47 30.12h90.35v30.12h-90.35z"/><path d="m301.18 30.12h90.35v30.12h-90.35z"/><path d="m391.53 60.24h30.12v30.11h-30.12z"/><path d="m271.06 60.24h30.12v30.11h-30.12z"/><path d="m90.35 60.24h30.12v30.11h-30.12z"/><path d="m210.82 60.24h30.12v30.11h-30.12z"/></g><g><path d="m301.18 150.59v30.12h-30.12v30.11h-30.12v-30.11h-30.12v-30.12h30.12v-30.12h30.12v30.12z" fill="#f7f9fa"/></g></g></g><g/><g/><g/><g/><g/><g/><g/><g/><g/><g/><g/><g/><g/><g/><g/></svg>